<svg xmlns="http://www.w3.org/2000/svg" viewBox="0 0 320 240" width="960" height="720" role="img" aria-labelledby="title desc" shape-rendering="crispEdges">
  <title id="title">Pixel art of a couple, a baby, and a cat in front of a two-story white house with a Danish flag</title>
  <desc id="desc">A detailed toy-brick-style pixel scene showing a white two-story house, a couple, a baby, a cat, flower beds, and a Danish flag in the garden.</desc>

  <rect width="320" height="240" fill="#9fd7ff"/>
  <rect y="152" width="320" height="88" fill="#81c45a"/>
  <rect y="192" width="320" height="48" fill="#6caf46"/>

  <rect x="24" y="24" width="40" height="8" fill="#ffffff"/>
  <rect x="232" y="20" width="32" height="8" fill="#ffffff"/>
  <rect x="248" y="28" width="40" height="8" fill="#ffffff"/>

  <rect x="56" y="64" width="208" height="8" fill="#9b3e3e"/>
  <rect x="48" y="72" width="224" height="8" fill="#b64949"/>
  <rect x="56" y="80" width="208" height="8" fill="#d36262"/>

  <rect x="64" y="88" width="192" height="88" fill="#f9f9f6"/>
  <rect x="56" y="88" width="8" height="88" fill="#d7d7d2"/>
  <rect x="256" y="88" width="8" height="88" fill="#d7d7d2"/>
  <rect x="64" y="168" width="192" height="8" fill="#d7d7d2"/>

  <rect x="72" y="96" width="176" height="8" fill="#ecece8"/>
  <rect x="72" y="120" width="176" height="8" fill="#ecece8"/>
  <rect x="72" y="144" width="176" height="8" fill="#ecece8"/>

  <rect x="88" y="96" width="40" height="28" fill="#8bc4ff"/>
  <rect x="192" y="96" width="40" height="28" fill="#8bc4ff"/>
  <rect x="88" y="128" width="40" height="28" fill="#8bc4ff"/>
  <rect x="192" y="128" width="40" height="28" fill="#8bc4ff"/>

  <rect x="84" y="92" width="48" height="4" fill="#bdbdb8"/>
  <rect x="188" y="92" width="48" height="4" fill="#bdbdb8"/>
  <rect x="84" y="124" width="48" height="4" fill="#bdbdb8"/>
  <rect x="188" y="124" width="48" height="4" fill="#bdbdb8"/>
  <rect x="84" y="156" width="48" height="4" fill="#bdbdb8"/>
  <rect x="188" y="156" width="48" height="4" fill="#bdbdb8"/>
  <rect x="88" y="108" width="40" height="4" fill="#bddcf9"/>
  <rect x="192" y="108" width="40" height="4" fill="#bddcf9"/>
  <rect x="88" y="140" width="40" height="4" fill="#bddcf9"/>
  <rect x="192" y="140" width="40" height="4" fill="#bddcf9"/>
  <rect x="106" y="96" width="4" height="28" fill="#d9edf9"/>
  <rect x="210" y="96" width="4" height="28" fill="#d9edf9"/>
  <rect x="106" y="128" width="4" height="28" fill="#d9edf9"/>
  <rect x="210" y="128" width="4" height="28" fill="#d9edf9"/>

  <rect x="140" y="128" width="40" height="48" fill="#99643c"/>
  <rect x="144" y="132" width="32" height="44" fill="#aa7549"/>
  <rect x="152" y="136" width="16" height="32" fill="#bd8c5c"/>
  <rect x="168" y="148" width="4" height="4" fill="#f2d47a"/>
  <rect x="132" y="120" width="56" height="8" fill="#d8d8d3"/>

  <rect x="64" y="176" width="192" height="8" fill="#c1aa8b"/>
  <rect x="64" y="184" width="192" height="8" fill="#d0b495"/>

  <rect x="72" y="176" width="40" height="8" fill="#5fa740"/>
  <rect x="120" y="176" width="32" height="8" fill="#5fa740"/>
  <rect x="184" y="176" width="40" height="8" fill="#5fa740"/>
  <rect x="232" y="176" width="16" height="8" fill="#5fa740"/>

  <rect x="80" y="184" width="24" height="8" fill="#c44d5b"/>
  <rect x="88" y="180" width="8" height="4" fill="#ffd05a"/>
  <rect x="200" y="184" width="24" height="8" fill="#c44d5b"/>
  <rect x="208" y="180" width="8" height="4" fill="#ffd05a"/>

  <rect x="34" y="124" width="4" height="60" fill="#8d8d8d"/>
  <rect x="38" y="124" width="24" height="16" fill="#c9132c"/>
  <rect x="46" y="124" width="4" height="16" fill="#ffffff"/>
  <rect x="38" y="130" width="24" height="4" fill="#ffffff"/>
  <rect x="30" y="184" width="12" height="8" fill="#85735d"/>

  <rect x="94" y="160" width="28" height="8" fill="#6e40aa"/>
  <rect x="90" y="168" width="36" height="20" fill="#2f6dc0"/>
  <rect x="94" y="188" width="12" height="20" fill="#263238"/>
  <rect x="110" y="188" width="12" height="20" fill="#263238"/>
  <rect x="94" y="208" width="12" height="4" fill="#111111"/>
  <rect x="110" y="208" width="12" height="4" fill="#111111"/>
  <rect x="94" y="148" width="28" height="12" rx="4" ry="4" fill="#f1c39d"/>
  <rect x="92" y="144" width="32" height="4" fill="#5a3c25"/>
  <rect x="98" y="153" width="4" height="4" fill="#111111"/>
  <rect x="114" y="153" width="4" height="4" fill="#111111"/>
  <rect x="104" y="157" width="8" height="3" fill="#cf8e73"/>
  <rect x="86" y="172" width="4" height="12" fill="#f1c39d"/>
  <rect x="126" y="172" width="4" height="12" fill="#f1c39d"/>

  <rect x="146" y="172" width="12" height="10" fill="#f1c39d"/>
  <rect x="142" y="182" width="20" height="18" fill="#f6d46a"/>
  <rect x="146" y="200" width="12" height="8" fill="#f6d46a"/>
  <rect x="140" y="186" width="2" height="8" fill="#f1c39d"/>
  <rect x="162" y="186" width="2" height="8" fill="#f1c39d"/>

  <rect x="182" y="160" width="28" height="8" fill="#d24f8b"/>
  <rect x="178" y="168" width="36" height="20" fill="#f06292"/>
  <rect x="182" y="188" width="12" height="20" fill="#263238"/>
  <rect x="198" y="188" width="12" height="20" fill="#263238"/>
  <rect x="182" y="208" width="12" height="4" fill="#111111"/>
  <rect x="198" y="208" width="12" height="4" fill="#111111"/>
  <rect x="182" y="148" width="28" height="12" rx="4" ry="4" fill="#f1c39d"/>
  <rect x="180" y="144" width="32" height="4" fill="#d69753"/>
  <rect x="186" y="153" width="4" height="4" fill="#111111"/>
  <rect x="202" y="153" width="4" height="4" fill="#111111"/>
  <rect x="192" y="157" width="8" height="3" fill="#cf8e73"/>
  <rect x="174" y="172" width="4" height="12" fill="#f1c39d"/>
  <rect x="214" y="172" width="4" height="12" fill="#f1c39d"/>

  <rect x="228" y="190" width="20" height="8" fill="#f2af49"/>
  <rect x="224" y="198" width="28" height="12" fill="#f6bf63"/>
  <rect x="236" y="186" width="8" height="4" fill="#f2af49"/>
  <rect x="252" y="194" width="4" height="4" fill="#f2af49"/>
  <rect x="228" y="210" width="8" height="4" fill="#7a5a36"/>
  <rect x="244" y="210" width="8" height="4" fill="#7a5a36"/>
  <rect x="228" y="194" width="4" height="4" fill="#111111"/>

  <rect x="58" y="64" width="8" height="8" rx="4" ry="4" fill="#d98b8b"/>
  <rect x="82" y="64" width="8" height="8" rx="4" ry="4" fill="#d98b8b"/>
  <rect x="106" y="64" width="8" height="8" rx="4" ry="4" fill="#d98b8b"/>
  <rect x="130" y="64" width="8" height="8" rx="4" ry="4" fill="#d98b8b"/>
  <rect x="154" y="64" width="8" height="8" rx="4" ry="4" fill="#d98b8b"/>
  <rect x="178" y="64" width="8" height="8" rx="4" ry="4" fill="#d98b8b"/>
  <rect x="202" y="64" width="8" height="8" rx="4" ry="4" fill="#d98b8b"/>
  <rect x="226" y="64" width="8" height="8" rx="4" ry="4" fill="#d98b8b"/>
  <rect x="250" y="64" width="8" height="8" rx="4" ry="4" fill="#d98b8b"/>

  <rect x="70" y="220" width="16" height="6" rx="3" ry="3" fill="#78be52"/>
  <rect x="96" y="220" width="16" height="6" rx="3" ry="3" fill="#78be52"/>
  <rect x="122" y="220" width="16" height="6" rx="3" ry="3" fill="#78be52"/>
  <rect x="148" y="220" width="16" height="6" rx="3" ry="3" fill="#78be52"/>
  <rect x="174" y="220" width="16" height="6" rx="3" ry="3" fill="#78be52"/>
  <rect x="200" y="220" width="16" height="6" rx="3" ry="3" fill="#78be52"/>
  <rect x="226" y="220" width="16" height="6" rx="3" ry="3" fill="#78be52"/>
</svg>